<?xml version="1.0" encoding="UTF-8" standalone="no"?>
<svg xmlns="http://www.w3.org/2000/svg" version="1.1" xmlns:xlink="http://www.w3.org/1999/xlink" xmlns:svgjs="http://svgjs.dev/svgjs" width="1000" height="1012" viewBox="0 0 1000 1012"><g transform="matrix(1,0,0,1,0.8839555710255809,0.40971659919023296)"><svg viewBox="0 0 244 247" data-background-color="#ffffff" preserveAspectRatio="xMidYMid meet" height="1012" width="1000" xmlns="http://www.w3.org/2000/svg" xmlns:xlink="http://www.w3.org/1999/xlink"><g id="tight-bounds" transform="matrix(1,0,0,1,-0.2156851593302349,-0.09999999999999432)"><svg viewBox="0 0 244.43135999999996 247.2" height="247.2" width="244.43135999999996"><g><svg></svg></g><g><svg viewBox="0 0 244.43135999999996 247.2" height="247.2" width="244.43135999999996"><g transform="matrix(1,0,0,1,0,94.1698802640679)"><svg viewBox="0 0 244.43135999999996 58.86023947186419" height="58.86023947186419" width="244.43135999999996"><g><svg viewBox="0 0 244.43135999999996 58.86023947186419" height="58.86023947186419" width="244.43135999999996"><g><svg viewBox="0 0 244.43135999999996 58.86023947186419" height="58.86023947186419" width="244.43135999999996"><g><svg viewBox="0 0 244.43135999999996 58.86023947186419" height="58.86023947186419" width="244.43135999999996"><g id="textblocktransform"><svg viewBox="0 0 244.43135999999996 58.86023947186419" height="58.86023947186419" width="244.43135999999996" id="textblock"><g><svg viewBox="0 0 244.43135999999996 58.86023947186419" height="58.86023947186419" width="244.43135999999996"><g transform="matrix(1,0,0,1,0,0)"><svg width="244.43135999999996" viewBox="1 -37.79999923706055 159.0399932861328 38.29999923706055" height="58.86023947186419" data-palette-color="#332885"><path d="M22 0L11 0 11-25.85 1-25.35 1-35.4 32.25-35.4 32.25-25.35 22-25.85 22-8 22.55-3 22 0ZM38.25 0.5L38.25 0.5Q34.9 0.5 32.82-1.07 30.75-2.65 30.75-6.6L30.75-6.6Q30.75-10.25 33.17-12.13 35.6-14 39.75-14L39.75-14Q42-14 43.35-13.58 44.7-13.15 45.4-12.75L45.4-12.75 45.75-13Q45.75-14.55 45.2-15.33 44.65-16.1 42.55-16.1L42.55-16.1Q40.7-16.1 38.77-15.73 36.85-15.35 35.15-14.78 33.45-14.2 32.25-13.55L32.25-13.55 32.25-22.55Q33.05-22.8 34.8-23.15 36.55-23.5 39-23.78 41.45-24.05 44.25-24.05L44.25-24.05Q48.95-24.05 51.7-22.93 54.45-21.8 55.62-19.68 56.8-17.55 56.8-14.6L56.8-14.6 56.8-7.95 57.8-2.9 56.8 0.05 46.25 0.05 46.25-2.4 45.75-2.65Q44.95-1.5 43.02-0.5 41.1 0.5 38.25 0.5ZM43.9-6.05L43.9-6.05Q44.65-6.05 45.15-6.3 45.65-6.55 45.75-6.6L45.75-6.6 45.75-7.7Q45.75-8.45 45.3-9 44.85-9.55 43.95-9.55L43.95-9.55Q43.15-9.55 42.45-9.13 41.75-8.7 41.75-7.65L41.75-7.65Q41.75-6.05 43.9-6.05ZM73 0L62 0 62-15.05 61-20.55 62.55-23.6 72-23.6 72-21.45 72.45-21.15Q73-21.65 73.97-22.33 74.95-23 76.34-23.55 77.75-24.1 79.5-24.1L79.5-24.1Q83.59-24.1 85.55-21.55 87.5-19 87.5-14.4L87.5-14.4 87.5-8 88.5-3 87.5 0 76.45 0 76.45-12.65Q76.45-14.15 75.77-14.88 75.09-15.6 73.5-15.6L73.5-15.6 73-15.1 73 0ZM109.99 0L97.49 0 91.19-17.1 90.19-23.6 101.69-23.6 103.44-9 104.44-9 106.24-23.6 117.69-23.6 116.69-17.1 109.99 0ZM133.74-31.45L126.34-25.05 118.94-31.45 126.34-37.8 133.74-31.45ZM131.79 0L120.79 0 120.79-16.55 119.74-20.55 120.74-23.6 131.79-23.6 131.79 0ZM147.69 0L136.79 0 136.79-15.65 135.74-20.65 136.79-23.65 145.59-23.65 146.59-22.5Q146.59-22.5 147.16-22.93 147.74-23.35 148.79-23.75 149.84-24.15 151.24-24.15L151.24-24.15Q152.24-24.15 153.24-24 154.24-23.85 154.79-23.6L154.79-23.6 160.04-18.85 155.79-11.95 149.19-15.7 147.69-15.2 147.69 0Z" opacity="1" transform="matrix(1,0,0,1,0,0)" fill="#332885" class="wordmark-text-0" data-fill-palette-color="primary" id="text-0"></path></svg></g></svg></g></svg></g></svg></g><g></g></svg></g></svg></g></svg></g><path d="M0 88.17L0 1 244.431 1 244.431 88.17 239.123 88.17 239.123 6.308 5.308 6.308 5.308 88.17 0 88.17M0 159.03L0 246.2 244.431 246.2 244.431 159.03 239.123 159.03 239.123 240.892 5.308 240.892 5.308 159.03 0 159.03" fill="#332885" stroke="transparent" data-fill-palette-color="primary"></path></svg></g><defs></defs></svg><rect width="244.43135999999996" height="247.2" fill="none" stroke="none" visibility="hidden"></rect></g></svg></g></svg>
